<?xml version="1.0" encoding="utf-8"?>
<!-- Generator: Adobe Illustrator 16.0.0, SVG Export Plug-In . SVG Version: 6.00 Build 0)  -->
<!DOCTYPE svg PUBLIC "-//W3C//DTD SVG 1.1//EN" "http://www.w3.org/Graphics/SVG/1.1/DTD/svg11.dtd">
<svg version="1.1" id="Layer_2" xmlns="http://www.w3.org/2000/svg" xmlns:xlink="http://www.w3.org/1999/xlink" x="0px" y="0px"
	 width="1400px" height="980px" viewBox="0 0 1400 980" enable-background="new 0 0 1400 980" xml:space="preserve">
<g id="Airport">
</g>
<g>
	<g>
		<path d="M1236.5,363.5c-32.2-31.9-82.7-42.9-82.7-42.9s12.4-13.4,15.4-29.9c0,0,18.5-15.2,20.9-37.4c3-27.8-6.6-30.5-6.6-30.5
			s5.8-86.2-75.8-86.2c-81.6,0-75.8,86.2-75.8,86.2s-9.6,2.7-6.6,30.5c2.4,22.2,20.9,37.4,20.9,37.4c3,16.5,15.4,29.9,15.4,29.9
			s-50.5,11-82.7,42.9c-34.4,34.1-27.6,77.4-27.6,77.4c45,27.1,156.4,25.5,156.4,25.5s111.4,1.5,156.4-25.5
			C1264.1,440.9,1271,397.5,1236.5,363.5z"/>
		<path fill="#FFFFFF" d="M1060.6,239.6c0-6.5,1.9-13.1,5.8-19.7c3.9-6.7,9.5-12.2,16.9-16.6c7.4-4.4,16-6.6,25.9-6.6
			c9.2,0,17.3,1.8,24.3,5.5c7,3.7,12.4,8.6,16.3,14.9c3.8,6.3,5.7,13.1,5.7,20.5c0,5.8-1.1,10.9-3.3,15.3c-2.2,4.4-4.8,8.1-7.8,11.3
			c-3,3.2-8.4,8.5-16.2,16c-2.1,2.1-3.9,4-5.2,5.6c-1.3,1.6-2.3,3.1-2.9,4.4s-1.1,2.7-1.5,4c-0.3,1.3-0.9,3.7-1.6,7
			c-1.2,7.1-5,10.7-11.3,10.7c-3.3,0-6.1-1.2-8.3-3.5c-2.2-2.3-3.4-5.8-3.4-10.4c0-5.7,0.8-10.7,2.5-14.9c1.6-4.2,3.8-7.9,6.5-11.1
			c2.7-3.2,6.4-7,11-11.3c4-3.8,7-6.7,8.8-8.7c1.8-1.9,3.3-4.1,4.5-6.5c1.2-2.4,1.8-5,1.8-7.8c0-5.5-1.9-10.1-5.6-13.8
			c-3.8-3.8-8.6-5.6-14.6-5.6c-7,0-12.1,1.9-15.4,5.7c-3.3,3.8-6.1,9.4-8.3,16.8c-2.1,7.7-6.2,11.6-12.2,11.6c-3.5,0-6.5-1.3-9-4
			C1061.9,245.6,1060.6,242.7,1060.6,239.6z M1106.9,351.9c-3.9,0-7.2-1.4-10.1-4c-2.9-2.7-4.3-6.5-4.3-11.3c0-4.3,1.4-7.9,4.2-10.9
			c2.8-2.9,6.2-4.4,10.2-4.4c4,0,7.3,1.5,10,4.4c2.7,2.9,4.1,6.6,4.1,10.9c0,4.8-1.4,8.5-4.3,11.3
			C1113.9,350.5,1110.6,351.9,1106.9,351.9z"/>
	</g>
	<g>
		<path d="M600.8,224c0-10.1,3-20.3,9-30.6c6-10.3,14.7-18.9,26.2-25.7c11.5-6.8,24.9-10.2,40.2-10.2c14.2,0,26.8,2.8,37.7,8.5
			c10.9,5.7,19.3,13.4,25.2,23.2c5.9,9.8,8.9,20.4,8.9,31.8c0,9-1.7,16.9-5.1,23.7c-3.4,6.8-7.4,12.7-12.1,17.6s-13,13.2-25.1,24.9
			c-3.3,3.3-6,6.2-8,8.7c-2,2.5-3.5,4.8-4.5,6.8c-1,2.1-1.7,4.1-2.3,6.2c-0.5,2.1-1.3,5.7-2.4,10.9c-1.9,11-7.7,16.6-17.5,16.6
			c-5.1,0-9.4-1.8-12.9-5.4c-3.5-3.6-5.2-9-5.2-16.1c0-8.9,1.3-16.6,3.8-23.2c2.6-6.5,5.9-12.3,10.2-17.2
			c4.2-4.9,9.9-10.8,17.1-17.6c6.3-5.9,10.8-10.4,13.6-13.4c2.8-3,5.2-6.4,7.1-10.1c1.9-3.7,2.9-7.7,2.9-12.1
			c0-8.5-2.9-15.6-8.8-21.5c-5.8-5.8-13.4-8.8-22.6-8.8c-10.8,0-18.7,2.9-23.8,8.8c-5.1,5.9-9.4,14.6-13,26c-3.3,12-9.7,18-19,18
			c-5.5,0-10.1-2.1-13.9-6.3C602.6,233.5,600.8,228.9,600.8,224z M672.6,398.5c-6,0-11.2-2.1-15.7-6.3c-4.5-4.2-6.7-10.1-6.7-17.6
			c0-6.7,2.2-12.3,6.5-16.9c4.3-4.6,9.6-6.8,15.9-6.8c6.2,0,11.4,2.3,15.6,6.8c4.2,4.6,6.3,10.2,6.3,16.9c0,7.4-2.2,13.3-6.6,17.5
			C683.5,396.3,678.4,398.5,672.6,398.5z"/>
		<path d="M823,413.1c-2.9-30.5-11.2-54-24.5-69.8c-0.9-1.1-2.2-1.7-3.6-1.7h-30c-10.5,0-23.3-6.3-25.1-23.9
			c-0.3-2.6-2.6-4.5-5.2-4.3c-2.6,0.3-4.5,2.6-4.3,5.2c1.1,10.7,5.6,19.4,13.1,25.2c5.9,4.6,13.8,7.3,21.5,7.3h27.8
			c23.2,29.6,22.4,82.3,21.6,97.6h-53.6v-49.4c0-2.6-2.1-4.8-4.8-4.8c-2.6,0-4.8,2.1-4.8,4.8v49.4H597.6v-49.4
			c0-2.6-2.1-4.8-4.8-4.8c-2.6,0-4.8,2.1-4.8,4.8v49.4h-53.6c-0.8-15.4-1.6-68,21.6-97.6h27.8c7.7,0,15.5-2.6,21.5-7.3
			c7.5-5.8,12-14.5,13.1-25.2c0.3-2.6-1.7-5-4.3-5.2c-2.6-0.3-5,1.7-5.2,4.3c-1.8,17.6-14.6,23.9-25.1,23.9h-30
			c-1.4,0-2.7,0.6-3.6,1.7c-13.3,15.8-21.5,39.3-24.5,69.8c-2.2,22.5-0.5,40.2-0.5,40.9c0.2,2.5,2.3,4.3,4.7,4.3h288.8
			c2.5,0,4.5-1.9,4.7-4.3C823.6,453.2,825.2,435.5,823,413.1z"/>
	</g>
	<g>
		<path d="M305,310.6c0,0,23.1,16.9,51.3,0C356.3,310.6,334.2,281.7,305,310.6z"/>
		<path d="M369.9,272.7c0,0-9.5-24.4-39.2-18.5c-20,4-35.4,14.6-32.3,30C298.3,284.2,343.5,248.1,369.9,272.7z"/>
		<path d="M297.9,340.6c0.2,0,0.4,0,0.6-0.1c1.1-0.3,1.7-1.5,1.3-2.6c-7.1-22.4-5.4-42.9-5.4-43.1c0.1-1.1-0.7-2.1-1.9-2.2
			c-1.1-0.1-2.1,0.7-2.2,1.9c-0.1,0.9-1.8,21.4,5.6,44.6C296.3,340.1,297.1,340.6,297.9,340.6z"/>
		<path d="M212.2,310.6c28.2,16.9,51.3,0,51.3,0C234.3,281.7,212.2,310.6,212.2,310.6z"/>
		<path d="M270.2,284.2c3.1-15.4-12.3-26-32.3-30c-29.7-5.9-39.2,18.5-39.2,18.5C225.1,248.1,270.2,284.2,270.2,284.2z"/>
		<path d="M268.7,338c-0.3,1.1,0.3,2.2,1.3,2.6c0.2,0.1,0.4,0.1,0.6,0.1c0.9,0,1.7-0.6,1.9-1.4c7.4-23.2,5.7-43.8,5.6-44.6
			c-0.1-1.1-1.1-2-2.2-1.9c-1.1,0.1-1.9,1.1-1.9,2.2C274.1,295.1,275.8,315.5,268.7,338z"/>
		<path d="M383.3,272.1c-3.9-28.9-9.3-47.3-9.5-48.1c-0.2-0.7-0.6-1.4-1.2-1.9c-18.2-16.2-57.6-21.9-88.5-21.9
			c-30.8,0-70.3,5.8-88.5,21.9c-0.6,0.5-1,1.2-1.2,1.9c-0.2,0.8-5.7,19.1-9.5,48.1c-2.7,19.9-4.9,47.7-2.9,78.7c0,0.2,0,0.4,0,0.5
			c0,0,0,0.2,0,0.4c0.7,10.3,1.8,20.9,3.6,31.6c3.9,24.3,11.5,45.6,22.4,63.2c8.8,14.2,19.8,26,32.7,35.1
			c14.9,10.6,28.8,15.1,36.5,16.9c1.5,1.5,3.4,2.2,6.1,2.2c3.7,0,6.6,0,8.7-2.4c7.9-2,21.2-6.6,35.4-16.7
			c12.9-9.1,23.9-21,32.7-35.1c10.9-17.6,18.5-38.8,22.4-63.2c1.6-9.8,2.7-19.4,3.4-28.7c0.4-1.9,0.5-3.1,0.6-3.2
			c0.1-0.6,0-1.2-0.2-1.8C388.1,319.1,385.9,291.8,383.3,272.1z M193,273.4c3.2-24.4,7.7-41.5,9-45.9c14.1-11.6,46.1-19.1,82.2-19.1
			c36.1,0,68.1,7.5,82.2,19.1c2.3,8.3,16.2,61.9,11.6,126c-1.3,5.6-5.6,17.2-18.6,18.2c-22.3,1.8-36.4-19.2-36.5-19.4
			c-1.1-1.8-3.4-2.3-5.3-1.4c-1.9,1-2.7,3.2-1.9,5.1c2,5,2.1,11.7,0.1,15.6c-0.8,1.7-2.5,1.9-8,0.9l-0.4-0.1
			c-6.3-1-9.6,1.5-13.4,4.3l-0.3,0.3c-1.7,1.3-6.4,1.7-9,1.5c-0.2,0-0.4,0-0.5,0c-2.6,0.2-7.2-0.2-9-1.5l-0.3-0.3
			c-3.9-2.9-7.2-5.4-13.4-4.3l-0.4,0.1c-5.5,0.9-7.2,0.7-8-0.9c-1.9-3.9-1.9-10.6,0.1-15.6c0.8-1.9,0-4.2-1.9-5.1
			c-1.9-1-4.1-0.4-5.3,1.4c-0.1,0.2-14.1,21.2-36.5,19.4c-15.7-1.2-18.7-18-19.1-20.8C188.2,320.5,190.4,293,193,273.4z
			 M281.4,427.8c-25.4-1-47.7-12.3-55.6-28.2c-0.1-0.3-0.3-0.5-0.5-0.8c5.8,5.6,13.4,10.1,23.4,11.3c0,0,0.1,0,0.1,0
			c4.3,1.1,18.3,4.5,36.3,4.5c10.4,0,22.1-1.1,33.9-4.4c0.3,0,0.5-0.1,0.8-0.1c10-1.2,17.6-5.7,23.4-11.3c-0.1,0.2-0.3,0.3-0.4,0.5
			C331.5,418.2,308.5,428.9,281.4,427.8z M284.3,390.6c0,0,2.2,9.5,11.8,15.4c-8.5,0.7-16.5,0.5-23.3-0.1
			C282.1,400,284.3,390.6,284.3,390.6z M243.7,397.7c-12.1,0-20.2-10-24.8-18.3c10.5-1.7,18.8-7.2,24.5-12.3c0.3,3,1,5.9,2.2,8.2
			c3.7,7.5,11.8,6.1,16.6,5.4l0.4-0.1c2.7-0.4,3.8,0.2,7.3,2.8l0.3,0.3c0.4,0.3,0.8,0.5,1.2,0.8
			C266.4,390.4,257.6,397.7,243.7,397.7z M324.9,397.7c-13.9,0-22.7-7.3-27.7-13.3c0.4-0.2,0.8-0.5,1.2-0.8l0.3-0.3
			c3.6-2.7,4.5-3.3,7.3-2.8l0.4,0.1c4.8,0.8,12.9,2.1,16.6-5.4c1.2-2.4,1.9-5.2,2.2-8.2c5.7,5.1,14.1,10.6,24.5,12.3
			C345.1,387.6,337,397.7,324.9,397.7z M245.5,475c-19-13.4-43.3-40.5-51.8-93c-0.5-3.1-0.9-6.2-1.3-9.3c4.4,4.1,9.9,6.5,16.3,7
			c1.4,0.1,2.7,0.1,4.1,0.1c2.4,5.7,6.3,12.5,12,18.3c-1.2-0.9-2.9-1.2-4.3-0.5c-2,1-2.8,3.5-1.8,5.5c4.7,9.5,13.4,17.6,25.2,23.4
			c7.8,3.9,16.5,6.6,25.7,8.1c1,14.4,3,43.6,3.9,51.5c0.1,1,0.3,2,0.4,2.9C266.4,486.9,256.2,482.7,245.5,475z M323.1,474.8
			c-10.6,7.6-20.7,11.8-28,14.2c0.1-0.6,0.1-1.2,0.2-1.8c0.8-8.3,2.1-37.4,2.8-52c22.6-3.1,41.3-14.3,51.8-31.6
			c1.2-1.9,0.5-4.4-1.4-5.6c-1.5-0.9-3.3-0.7-4.6,0.3c5.7-5.8,9.5-12.6,12-18.3c0.2,0,0.5,0,0.7,0c1.1,0,2.2,0,3.4-0.1
			c6.2-0.5,11.6-2.8,15.9-6.7c-0.4,3-0.8,5.9-1.3,8.9C367.9,423.4,350.1,455.5,323.1,474.8z"/>
	</g>
	<g>
		<path d="M1167.7,579.5c0,0-44.4-16.5-60-16.5c-15.6,0-60,16.5-60,16.5l-22.6,82.3h82.6h82.6L1167.7,579.5z"/>
		<polygon fill="#FFFFFF" points="1190.4,661.8 1107.8,661.8 1025.2,661.8 1011.9,710 1107.8,688.3 1203.6,710 		"/>
		<path d="M1208.9,702.4c0,0-29.4-14.1-101.1-14.1c-71.7,0-101.1,14.1-101.1,14.1l-75.3,29.4h176.4h176.4L1208.9,702.4z"/>
		<path d="M1161.2,745.5c-37.1,0-53.4,6.4-53.4,6.4s-16.3-6.4-53.4-6.4c-52.7,0-58.3,4.6-58.3,4.6v13.6l6.1,3.5c0,0,2.3,20,9.8,38.3
			c7.4,18.3,35.3,17.7,56.6,11.3c20.3-6.1,29-44.9,29-44.9h10.2h10.2c0,0,8.7,38.9,29,44.9c21.3,6.4,49.2,7,56.6-11.3
			s9.8-38.3,9.8-38.3l6.1-3.5v-13.6C1219.5,750.1,1213.8,745.5,1161.2,745.5z"/>
	</g>
	<g>
		<path d="M808.4,768.6c-28.4-15.3-51-7.3-51.7-54.6c-0.7-47.4,7.3-165.4-82.3-165.4c-89.6,0-81.6,118-82.3,165.4
			s-23.3,39.3-51.7,54.6c-28.4,15.3-23.3,54.6-23.3,54.6h157.4h157.4C831.7,823.2,836.8,783.9,808.4,768.6z"/>
		<circle fill="#FFFFFF" cx="715.5" cy="652.4" r="9.1"/>
		<circle fill="#FFFFFF" cx="633.2" cy="652.4" r="9.1"/>
	</g>
	<g>
		<path d="M352.2,579.5c0,0-44.4-16.5-60-16.5c-15.6,0-60,16.5-60,16.5l-22.6,82.3h82.6h82.6L352.2,579.5z"/>
		<polygon fill="#FFFFFF" points="374.8,661.8 292.2,661.8 209.6,661.8 196.4,710 292.2,688.3 388.1,710 		"/>
		<path d="M393.4,702.4c0,0-29.4-14.1-101.1-14.1c-71.7,0-101.1,14.1-101.1,14.1l-75.3,29.4h176.4h176.4L393.4,702.4z"/>
		<g>
			<path d="M399.7,789c-0.6-21.8-8.5-26.4-20.3-30c-11.8-3.6-78.6,6.4-87.1,6.4c-8.5,0-75.3-10-87.1-6.4c-11.8,3.6-19.7,8.2-20.3,30
				c-0.6,21.9,6.7,33.7,29.7,41.9c23.1,8.2,48.3,16.7,55.5,10.3c7.3-6.4,11.8-13.7,22.2-13.7c10.3,0,14.9,7.3,22.2,13.7
				c7.3,6.4,32.5-2.1,55.5-10.3C393,822.6,400.3,810.8,399.7,789z M263.4,798.2c-1.2,11.7-17,14.4-30.7,12.6
				c-13.7-1.8-17.6-13.7-15.5-20.9c1.5-5.3,14.3-4.1,24.6-3.6C254.3,786.8,264.6,786.5,263.4,798.2z M351.7,810.8
				c-13.7,1.8-29.4-0.9-30.7-12.6c-1.2-11.7,9.1-11.5,21.5-12c10.3-0.5,23-1.6,24.6,3.6C369.3,797.1,365.4,809,351.7,810.8z"/>
		</g>
	</g>
</g>
</svg>
