<?xml version="1.0" encoding="UTF-8" standalone="no"?>
<!-- Created with Inkscape (http://www.inkscape.org/) -->
<svg xmlns:rdf="http://www.w3.org/1999/02/22-rdf-syntax-ns#" xmlns="http://www.w3.org/2000/svg" xmlns:cc="http://creativecommons.org/ns#" xmlns:dc="http://purl.org/dc/elements/1.1/" xmlns:svg="http://www.w3.org/2000/svg" xmlns:inkscape="http://www.inkscape.org/namespaces/inkscape" xmlns:sodipodi="http://sodipodi.sourceforge.net/DTD/sodipodi-0.dtd" xmlns:ns1="http://sozi.baierouge.fr" xmlns:xlink="http://www.w3.org/1999/xlink" id="svg3366" viewBox="0 0 238.43 224.2" version="1.1" inkscape:version="0.91 r13725">
  <title id="title3403">Go-round</title>
  <g id="layer1" transform="translate(56.36 -388.83)">
    <g id="g5217" transform="matrix(.74085 0 0 .82913 354.96 123.5)">
      <g id="g5170" transform="translate(185.71 -394.29)">
        <path id="path5176" style="block-progression:tb;text-indent:0;color:#000000;text-transform:none;fill:#000000" d="m-572 810.97c-30.193-2.6979-62.653 14.68-73.621 43.595-3.5647 10.295-3.7356 21.786-0.19423 32.111-0.78781 13.144 8.9007 24.227 18.345 32.191 10.068 6.9986 7.6403-8.494 3.4987-13.038-10.438-12.508-14.885-30.042-9.9371-45.795 5.946-20.081 25.682-34.302 46.324-35.443 21.744-7.7185 48.377-1.3323 63.652 16.071 8.2331 9.3653 7.2508 23.962-1.0154 32.938-7.8323 8.6508-15.986 17.462-27.022 22.014-7.3693 4.4686-17.371 7.5056-20.985 16.071-2.4381 11.457 11.748 2.7446 16.859 1.0962 24.432-10.773 47.219-31.664 50.764-59.349 2.6204-13.458-5.4185-26.714-17.203-32.859-14.931-8.3583-32.735-9.3886-49.465-9.6038z"/>
        <path id="path5174" style="stroke:#000000;stroke-width:.25518pt;fill-rule:evenodd" d="m-565.85 912.2c4.9898-8.9028-6.6237-10.023-10.104-3.2187-4.4631 3.1443-17.569 18.249-5.3576 16.959 7.5167-4.4672 16.303-4.7642 24.527-7.0164 10.091-3.8447-6.09-5.6809-9.0655-6.7236z"/>
      </g>
      <path id="path5199" style="stroke:#000000;stroke-width:13.27;fill:#c8b7b7" d="m-514.29 518.08a28.571 28.571 0 1 1 -57.143 0 28.571 28.571 0 1 1 57.143 0z" transform="translate(25.714 14.286)"/>
      <path id="path5203" style="stroke:#000000;stroke-width:13.27;fill:#c8b7b7" d="m-514.29 518.08a28.571 28.571 0 1 1 -57.143 0 28.571 28.571 0 1 1 57.143 0z" transform="translate(214.29 37.143)"/>
      <path id="path5207" style="stroke:#000000;stroke-width:13.27;fill:#c8b7b7" d="m-514.29 518.08a28.571 28.571 0 1 1 -57.143 0 28.571 28.571 0 1 1 57.143 0z" transform="translate(22.857 -71.429)"/>
      <path id="path5209" style="stroke:#000000;stroke-width:13.27;fill:#c8b7b7" d="m-514.29 518.08a28.571 28.571 0 1 1 -57.143 0 28.571 28.571 0 1 1 57.143 0z" transform="translate(82.857 -145.71)"/>
      <path id="path5211" style="stroke:#000000;stroke-width:13.27;fill:#c8b7b7" d="m-514.29 518.08a28.571 28.571 0 1 1 -57.143 0 28.571 28.571 0 1 1 57.143 0z" transform="translate(180 -162.86)"/>
      <path id="path5213" style="stroke:#000000;stroke-width:13.27;fill:#c8b7b7" d="m-514.29 518.08a28.571 28.571 0 1 1 -57.143 0 28.571 28.571 0 1 1 57.143 0z" transform="translate(268.57 -111.43)"/>
      <path id="path5215" style="stroke:#000000;stroke-width:13.27;fill:#c8b7b7" d="m-514.29 518.08a28.571 28.571 0 1 1 -57.143 0 28.571 28.571 0 1 1 57.143 0z" transform="translate(274.29 -31.429)"/>
    </g>
  </g>
  <metadata>
    <rdf:RDF>
      <cc:Work>
        <dc:format>image/svg+xml</dc:format>
        <dc:type rdf:resource="http://purl.org/dc/dcmitype/StillImage"/>
        <cc:license rdf:resource="http://creativecommons.org/licenses/publicdomain/"/>
        <dc:publisher>
          <cc:Agent rdf:about="http://openclipart.org/">
            <dc:title>Openclipart</dc:title>
          </cc:Agent>
        </dc:publisher>
        <dc:title>Go-round</dc:title>
        <dc:date>2012-04-08T06:52:09</dc:date>
        <dc:description>Icon for a group go-rond activity from the facilitation set.</dc:description>
        <dc:source>https://openclipart.org/detail/169418/go-round-by-bitterjug</dc:source>
        <dc:creator>
          <cc:Agent>
            <dc:title>bitterjug</dc:title>
          </cc:Agent>
        </dc:creator>
        <dc:subject>
          <rdf:Bag>
            <rdf:li>abstract</rdf:li>
            <rdf:li>discussion</rdf:li>
            <rdf:li>go-round</rdf:li>
            <rdf:li>group</rdf:li>
            <rdf:li>taking turns</rdf:li>
            <rdf:li>turn</rdf:li>
            <rdf:li>turn taking</rdf:li>
          </rdf:Bag>
        </dc:subject>
      </cc:Work>
      <cc:License rdf:about="http://creativecommons.org/licenses/publicdomain/">
        <cc:permits rdf:resource="http://creativecommons.org/ns#Reproduction"/>
        <cc:permits rdf:resource="http://creativecommons.org/ns#Distribution"/>
        <cc:permits rdf:resource="http://creativecommons.org/ns#DerivativeWorks"/>
      </cc:License>
    </rdf:RDF>
  </metadata>
</svg>
